# Matter Overdrive original low-poly Vex Mythoclast-inspired model
# No external mesh or Destiny game asset used
mtllib vex_mythoclast.mtl
s off

v -0.065000 -0.005000 -0.120000
v 0.065000 -0.005000 -0.120000
v 0.065000 0.115000 -0.120000
v -0.065000 0.115000 -0.120000
v -0.065000 -0.005000 0.400000
v 0.065000 -0.005000 0.400000
v 0.065000 0.115000 0.400000
v -0.065000 0.115000 0.400000
v -0.050000 -0.005000 -0.400000
v 0.050000 -0.005000 -0.400000
v 0.045000 0.095000 -0.400000
v -0.045000 0.095000 -0.400000
v -0.060000 0.000000 -0.100000
v 0.060000 0.000000 -0.100000
v 0.060000 0.120000 -0.100000
v -0.060000 0.120000 -0.100000
v -0.052000 0.065000 -0.330000
v 0.052000 0.065000 -0.330000
v 0.052000 0.125000 -0.330000
v -0.052000 0.125000 -0.330000
v -0.052000 0.065000 -0.140000
v 0.052000 0.065000 -0.140000
v 0.052000 0.125000 -0.140000
v -0.052000 0.125000 -0.140000
v -0.035000 -0.130000 -0.180000
v 0.035000 -0.130000 -0.180000
v 0.035000 -0.015000 -0.180000
v -0.035000 -0.015000 -0.180000
v -0.028000 -0.155000 0.000000
v 0.028000 -0.155000 0.000000
v 0.028000 -0.005000 0.000000
v -0.028000 -0.005000 0.000000
v -0.038000 -0.105000 -0.160000
v 0.038000 -0.105000 -0.160000
v 0.038000 -0.070000 -0.160000
v -0.038000 -0.070000 -0.160000
v -0.038000 -0.105000 -0.020000
v 0.038000 -0.105000 -0.020000
v 0.038000 -0.070000 -0.020000
v -0.038000 -0.070000 -0.020000
v -0.075000 0.030000 0.120000
v 0.075000 0.030000 0.120000
v 0.075000 0.145000 0.120000
v -0.075000 0.145000 0.120000
v -0.075000 0.030000 0.280000
v 0.075000 0.030000 0.280000
v 0.075000 0.145000 0.280000
v -0.075000 0.145000 0.280000
v -0.050000 0.055000 0.145000
v 0.050000 0.055000 0.145000
v 0.050000 0.135000 0.145000
v -0.050000 0.135000 0.145000
v -0.050000 0.055000 0.255000
v 0.050000 0.055000 0.255000
v 0.050000 0.135000 0.255000
v -0.050000 0.135000 0.255000
v -0.115000 0.000000 0.000000
v -0.065000 0.010000 0.030000
v -0.065000 0.110000 0.030000
v -0.115000 0.120000 0.000000
v -0.115000 0.000000 0.350000
v -0.065000 0.020000 0.320000
v -0.065000 0.100000 0.320000
v -0.115000 0.120000 0.350000
v 0.065000 0.000000 0.000000
v 0.115000 0.010000 0.030000
v 0.115000 0.110000 0.030000
v 0.065000 0.120000 0.000000
v 0.065000 0.000000 0.350000
v 0.115000 0.020000 0.320000
v 0.115000 0.100000 0.320000
v 0.065000 0.120000 0.350000
v -0.025000 0.115000 -0.020000
v 0.025000 0.115000 -0.020000
v 0.025000 0.180000 -0.020000
v -0.025000 0.180000 -0.020000
v -0.025000 0.115000 0.480000
v 0.025000 0.115000 0.480000
v 0.025000 0.180000 0.480000
v -0.025000 0.180000 0.480000
v -0.012000 0.175000 0.200000
v 0.012000 0.175000 0.200000
v 0.012000 0.205000 0.200000
v -0.012000 0.205000 0.200000
v -0.012000 0.175000 0.310000
v 0.012000 0.175000 0.310000
v 0.012000 0.205000 0.310000
v -0.012000 0.205000 0.310000
v -0.045000 0.025000 0.500000
v 0.045000 0.025000 0.500000
v 0.045000 0.105000 0.500000
v -0.045000 0.105000 0.500000
v -0.045000 0.025000 0.670000
v 0.045000 0.025000 0.670000
v 0.045000 0.105000 0.670000
v -0.045000 0.105000 0.670000
v -0.072000 0.020000 0.610000
v -0.025000 0.035000 0.610000
v -0.025000 0.100000 0.610000
v -0.072000 0.105000 0.610000
v -0.072000 0.015000 0.860000
v -0.023000 0.030000 0.860000
v -0.023000 0.092000 0.860000
v -0.072000 0.100000 0.860000
v 0.025000 0.020000 0.610000
v 0.072000 0.035000 0.610000
v 0.072000 0.100000 0.610000
v 0.025000 0.105000 0.610000
v 0.025000 0.015000 0.860000
v 0.066240 0.030000 0.860000
v 0.066240 0.092000 0.860000
v 0.025000 0.100000 0.860000
v -0.025000 0.035000 0.680000
v 0.025000 0.035000 0.680000
v 0.025000 0.090000 0.680000
v -0.025000 0.090000 0.680000
v -0.025000 0.035000 0.840000
v 0.025000 0.035000 0.840000
v 0.025000 0.090000 0.840000
v -0.025000 0.090000 0.840000
v -0.132000 0.020000 0.290000
v -0.078000 0.040000 0.250000
v -0.078000 0.110000 0.250000
v -0.132000 0.120000 0.290000
v -0.132000 0.030000 0.520000
v -0.070200 0.050000 0.480000
v -0.070200 0.100000 0.480000
v -0.132000 0.115000 0.520000
v 0.078000 0.020000 0.290000
v 0.132000 0.040000 0.250000
v 0.132000 0.110000 0.250000
v 0.078000 0.120000 0.290000
v 0.078000 0.030000 0.520000
v 0.118800 0.050000 0.480000
v 0.118800 0.100000 0.480000
v 0.078000 0.115000 0.520000
v -0.026000 -0.025000 0.020000
v 0.026000 -0.025000 0.020000
v 0.026000 0.005000 0.020000
v -0.026000 0.005000 0.020000
v -0.026000 -0.025000 0.450000
v 0.026000 -0.025000 0.450000
v 0.026000 0.005000 0.450000
v -0.026000 0.005000 0.450000
v -0.072000 0.105000 0.020000
v 0.072000 0.105000 0.020000
v 0.072000 0.130000 0.020000
v -0.072000 0.130000 0.020000
v -0.072000 0.105000 0.038000
v 0.072000 0.105000 0.038000
v 0.072000 0.130000 0.038000
v -0.072000 0.130000 0.038000
v -0.072000 0.105000 0.080000
v 0.072000 0.105000 0.080000
v 0.072000 0.130000 0.080000
v -0.072000 0.130000 0.080000
v -0.072000 0.105000 0.098000
v 0.072000 0.105000 0.098000
v 0.072000 0.130000 0.098000
v -0.072000 0.130000 0.098000
v -0.072000 0.105000 0.320000
v 0.072000 0.105000 0.320000
v 0.072000 0.130000 0.320000
v -0.072000 0.130000 0.320000
v -0.072000 0.105000 0.338000
v 0.072000 0.105000 0.338000
v 0.072000 0.130000 0.338000
v -0.072000 0.130000 0.338000
v -0.072000 0.105000 0.390000
v 0.072000 0.105000 0.390000
v 0.072000 0.130000 0.390000
v -0.072000 0.130000 0.390000
v -0.072000 0.105000 0.408000
v 0.072000 0.105000 0.408000
v 0.072000 0.130000 0.408000
v -0.072000 0.130000 0.408000

o receiver
usemtl vex_bronze
f 1 2 3 4
f 5 8 7 6
f 1 5 6 2
f 4 3 7 8
f 2 6 7 3
f 1 4 8 5

o stock
usemtl vex_dark
f 9 10 11 12
f 13 16 15 14
f 9 13 14 10
f 12 11 15 16
f 10 14 15 11
f 9 12 16 13

o stock_plate
usemtl vex_ivory
f 17 18 19 20
f 21 24 23 22
f 17 21 22 18
f 20 19 23 24
f 18 22 23 19
f 17 20 24 21

o grip
usemtl vex_dark
f 25 26 27 28
f 29 32 31 30
f 25 29 30 26
f 28 27 31 32
f 26 30 31 27
f 25 28 32 29

o grip_band
usemtl vex_bronze
f 33 34 35 36
f 37 40 39 38
f 33 37 38 34
f 36 35 39 40
f 34 38 39 35
f 33 36 40 37

o core_frame
usemtl vex_dark
f 41 42 43 44
f 45 48 47 46
f 41 45 46 42
f 44 43 47 48
f 42 46 47 43
f 41 44 48 45

o core_glow
usemtl vex_glow
f 49 50 51 52
f 53 56 55 54
f 49 53 54 50
f 52 51 55 56
f 50 54 55 51
f 49 52 56 53

o shoulder_-1
usemtl vex_ivory
f 57 58 59 60
f 61 64 63 62
f 57 61 62 58
f 60 59 63 64
f 58 62 63 59
f 57 60 64 61

o shoulder_1
usemtl vex_ivory
f 65 66 67 68
f 69 72 71 70
f 65 69 70 66
f 68 67 71 72
f 66 70 71 67
f 65 68 72 69

o top_spine
usemtl vex_bronze
f 73 74 75 76
f 77 80 79 78
f 73 77 78 74
f 76 75 79 80
f 74 78 79 75
f 73 76 80 77

o sight_glow
usemtl vex_glow
f 81 82 83 84
f 85 88 87 86
f 81 85 86 82
f 84 83 87 88
f 82 86 87 83
f 81 84 88 85

o barrel_neck
usemtl vex_bronze
f 89 90 91 92
f 93 96 95 94
f 89 93 94 90
f 92 91 95 96
f 90 94 95 91
f 89 92 96 93

o prong_-1
usemtl vex_bronze
f 97 98 99 100
f 101 104 103 102
f 97 101 102 98
f 100 99 103 104
f 98 102 103 99
f 97 100 104 101

o prong_1
usemtl vex_bronze
f 105 106 107 108
f 109 112 111 110
f 105 109 110 106
f 108 107 111 112
f 106 110 111 107
f 105 108 112 109

o muzzle_glow
usemtl vex_glow
f 113 114 115 116
f 117 120 119 118
f 113 117 118 114
f 116 115 119 120
f 114 118 119 115
f 113 116 120 117

o fin_-1
usemtl vex_dark
f 121 122 123 124
f 125 128 127 126
f 121 125 126 122
f 124 123 127 128
f 122 126 127 123
f 121 124 128 125

o fin_1
usemtl vex_dark
f 129 130 131 132
f 133 136 135 134
f 129 133 134 130
f 132 131 135 136
f 130 134 135 131
f 129 132 136 133

o lower_rail
usemtl vex_ivory
f 137 138 139 140
f 141 144 143 142
f 137 141 142 138
f 140 139 143 144
f 138 142 143 139
f 137 140 144 141

o rib_0
usemtl vex_bronze
f 145 146 147 148
f 149 152 151 150
f 145 149 150 146
f 148 147 151 152
f 146 150 151 147
f 145 148 152 149

o rib_1
usemtl vex_bronze
f 153 154 155 156
f 157 160 159 158
f 153 157 158 154
f 156 155 159 160
f 154 158 159 155
f 153 156 160 157

o rib_2
usemtl vex_bronze
f 161 162 163 164
f 165 168 167 166
f 161 165 166 162
f 164 163 167 168
f 162 166 167 163
f 161 164 168 165

o rib_3
usemtl vex_bronze
f 169 170 171 172
f 173 176 175 174
f 169 173 174 170
f 172 171 175 176
f 170 174 175 171
f 169 172 176 173
